<svg xmlns="http://www.w3.org/2000/svg" xmlns:xlink="http://www.w3.org/1999/xlink" width="500" zoomAndPan="magnify" viewBox="0 0 375 374.999991" height="500" preserveAspectRatio="xMidYMid meet" version="1.0"><defs><clipPath id="07583c8909"><path d="M 31.023438 0 L 343.773438 0 L 343.773438 375 L 31.023438 375 Z M 31.023438 0 " clip-rule="nonzero"/></clipPath></defs><g clip-path="url(#07583c8909)"><path fill="#000000" d="M 99.191406 0.0390625 L 257.214844 0.0390625 C 269.609375 0.0390625 278.902344 9.335938 278.902344 21.730469 L 278.902344 49.617188 L 282 49.617188 C 300.59375 49.617188 306.789062 62.011719 306.789062 77.503906 L 322.28125 77.503906 C 334.675781 77.503906 343.972656 86.796875 343.972656 96.09375 L 343.972656 303.695312 C 343.972656 325.382812 328.480469 343.972656 303.691406 343.972656 L 213.835938 343.972656 L 213.835938 322.285156 L 303.691406 322.285156 C 316.085938 322.285156 325.382812 312.988281 325.382812 303.695312 L 325.382812 99.191406 C 325.382812 99.191406 322.28125 96.09375 322.28125 96.09375 L 306.789062 96.09375 L 306.789062 269.609375 C 306.789062 272.707031 306.789062 278.90625 306.789062 285.101562 C 306.789062 291.300781 303.691406 294.398438 300.59375 300.59375 C 297.496094 303.695312 294.394531 303.695312 288.199219 303.695312 L 213.835938 303.695312 L 213.835938 263.414062 L 192.144531 263.414062 L 192.144531 374.960938 L 158.0625 356.367188 L 123.976562 374.960938 L 123.976562 306.792969 L 99.191406 306.792969 C 86.796875 306.792969 77.5 297.496094 77.5 285.101562 C 77.5 272.707031 86.796875 263.414062 99.191406 263.414062 L 77.5 263.414062 C 62.007812 263.414062 49.613281 275.808594 49.613281 288.203125 L 49.613281 297.496094 C 49.613281 312.988281 62.007812 322.285156 77.5 322.285156 L 105.386719 322.285156 L 105.386719 343.972656 L 71.304688 343.972656 C 49.613281 343.972656 31.023438 325.382812 31.023438 303.695312 L 31.023438 68.207031 C 31.023438 31.023438 62.007812 0.0390625 99.191406 0.0390625 Z M 238.621094 241.722656 L 77.5 241.722656 C 68.203125 241.722656 58.910156 244.824219 49.613281 251.019531 L 49.613281 68.207031 C 49.613281 40.320312 71.304688 18.632812 99.191406 18.632812 L 257.214844 18.632812 C 257.214844 18.632812 260.3125 21.730469 260.3125 21.730469 L 260.3125 223.132812 C 260.3125 235.527344 251.015625 241.722656 238.621094 241.722656 Z M 238.621094 241.722656 " fill-opacity="1" fill-rule="evenodd"/></g><path fill="#000000" d="M 117.78125 102.292969 L 99.191406 102.292969 C 80.597656 102.292969 68.203125 114.683594 68.203125 133.277344 L 68.203125 226.230469 C 71.304688 226.230469 74.402344 226.230469 77.5 226.230469 L 117.78125 226.230469 L 117.78125 195.246094 C 117.78125 195.246094 114.683594 192.148438 108.484375 192.148438 C 105.386719 192.148438 102.289062 189.050781 102.289062 185.949219 L 102.289062 176.65625 C 102.289062 176.65625 105.386719 179.753906 111.582031 179.753906 C 114.683594 179.753906 117.78125 182.851562 117.78125 185.949219 Z M 179.75 65.109375 L 130.175781 65.109375 L 130.175781 164.261719 C 130.175781 161.164062 133.273438 161.164062 136.371094 161.164062 C 145.667969 161.164062 148.765625 158.0625 148.765625 158.0625 L 148.765625 164.261719 C 148.765625 170.457031 145.667969 170.457031 142.570312 170.457031 C 133.273438 170.457031 130.175781 173.558594 130.175781 173.558594 L 130.175781 226.230469 L 179.75 226.230469 L 179.75 139.472656 C 179.75 139.472656 176.652344 139.472656 167.355469 139.472656 C 164.257812 139.472656 161.160156 136.375 161.160156 133.277344 L 161.160156 123.980469 C 161.160156 123.980469 164.257812 127.078125 173.554688 127.078125 C 176.652344 127.078125 179.75 130.175781 179.75 133.277344 Z M 241.722656 37.222656 L 192.144531 37.222656 L 192.144531 111.585938 C 192.144531 108.488281 195.242188 105.390625 198.34375 105.390625 C 204.539062 105.390625 207.636719 102.292969 207.636719 102.292969 L 207.636719 111.585938 C 207.636719 114.683594 204.539062 117.785156 201.441406 117.785156 C 192.144531 117.785156 192.144531 120.882812 192.144531 120.882812 L 192.144531 226.230469 L 238.621094 226.230469 C 241.722656 226.230469 241.722656 223.132812 241.722656 223.132812 Z M 241.722656 37.222656 " fill-opacity="1" fill-rule="evenodd"/></svg>